<?xml version="1.0" encoding="UTF-8"?>
<!DOCTYPE svg PUBLIC "-//W3C//DTD SVG 1.1//EN" "http://www.w3.org/Graphics/SVG/1.1/DTD/svg11.dtd">
<!-- Creator: CorelDRAW 2021 (64-Bit Not for commercial use) -->
<svg xmlns="http://www.w3.org/2000/svg" xml:space="preserve" width="197px" height="197px" version="1.1" style="shape-rendering:geometricPrecision; text-rendering:geometricPrecision; image-rendering:optimizeQuality; fill-rule:evenodd; clip-rule:evenodd"
viewBox="0 0 197 197.27"
 xmlns:xlink="http://www.w3.org/1999/xlink"
 xmlns:xodm="http://www.corel.com/coreldraw/odm/2003">
 <defs>
  <style type="text/css">
   <![CDATA[
    .str0 {stroke:#33CC66;stroke-width:19.54;stroke-linecap:round;stroke-linejoin:round;stroke-miterlimit:22.9256}
    .str1 {stroke:white;stroke-width:8.35;stroke-linecap:round;stroke-linejoin:round;stroke-miterlimit:22.9256}
    .fil0 {fill:none}
    .fil2 {fill:none}
    .fil1 {fill:#006633;fill-opacity:0.800000}
   ]]>
  </style>
 </defs>
 <g id="Layer_x0020_1">
  <metadata id="CorelCorpID_0Corel-Layer"/>
  <path class="fil0 str0" d="M40.5 31.18l117.23 0c10.79,0 19.54,8.75 19.54,19.54l0 117.24c0,10.79 -8.75,19.54 -19.54,19.54l-117.23 0c-10.8,0 -19.54,-8.75 -19.54,-19.54l0 -117.24c0,-10.79 8.74,-19.54 19.54,-19.54z"/>
  <line class="fil0 str0" x1="138.19" y1="11.64" x2="138.19" y2= "50.72" />
  <line class="fil0 str0" x1="60.03" y1="11.64" x2="60.03" y2= "50.72" />
  <line class="fil0 str0" x1="20.95" y1="89.8" x2="177.27" y2= "89.8" />
  <rect class="fil0 str0" x="60.04" y="128.88" width="19.54" height="19.54"/>
  <rect class="fil0" width="197" height="197"/>
  <path class="fil1" d="M123.52 74.79c32.59,0 59,26.41 59,58.99 0,32.59 -26.41,59 -59,59 -32.58,0 -58.99,-26.41 -58.99,-59 0,-32.58 26.41,-58.99 58.99,-58.99z"/>
  <g id="_2548556617536">
   <path class="fil2 str1" d="M91.07 135.4l0 -11.63c0.01,-6.42 5.21,-11.63 11.64,-11.63l50.39 0m-11.63 -11.63l11.63 11.63 -11.63 11.63"/>
   <path class="fil2 str1" d="M153.1 135.4l0 11.63c0,6.42 -5.21,11.63 -11.63,11.63l-50.4 0m11.63 11.63l-11.63 -11.63 11.63 -11.63"/>
  </g>
 </g>
</svg>
