<?xml version="1.0" encoding="UTF-8"?>
<!DOCTYPE svg PUBLIC "-//W3C//DTD SVG 1.1//EN" "http://www.w3.org/Graphics/SVG/1.1/DTD/svg11.dtd">
<!-- Creator: CorelDRAW 2021 (64-Bit Not for commercial use) -->
<svg xmlns="http://www.w3.org/2000/svg" xml:space="preserve" width="200px" height="200px" version="1.1" style="shape-rendering:geometricPrecision; text-rendering:geometricPrecision; image-rendering:optimizeQuality; fill-rule:evenodd; clip-rule:evenodd"
viewBox="0 0 200 200.27"
 xmlns:xlink="http://www.w3.org/1999/xlink"
 xmlns:xodm="http://www.corel.com/coreldraw/odm/2003">
 <defs>
  <style type="text/css">
   <![CDATA[
    .str1 {stroke:white;stroke-width:8.48;stroke-linecap:round;stroke-linejoin:round;stroke-miterlimit:22.9256}
    .str0 {stroke:#33CC66;stroke-width:19.84;stroke-linecap:round;stroke-linejoin:round;stroke-miterlimit:22.9256}
    .fil0 {fill:none}
    .fil1 {fill:#006633;fill-opacity:0.800000}
   ]]>
  </style>
 </defs>
 <g id="Layer_x0020_1">
  <metadata id="CorelCorpID_0Corel-Layer"/>
  <path class="fil0 str0" d="M41.12 31.66l119.01 0c10.96,0 19.84,8.88 19.84,19.83l0 119.03c0,10.95 -8.88,19.84 -19.84,19.84l-119.01 0c-10.97,0 -19.84,-8.89 -19.84,-19.84l0 -119.03c0,-10.95 8.87,-19.83 19.84,-19.83z"/>
  <line class="fil0 str0" x1="140.29" y1="11.82" x2="140.29" y2= "51.49" />
  <line class="fil0 str0" x1="60.94" y1="11.82" x2="60.94" y2= "51.49" />
  <line class="fil0 str0" x1="21.27" y1="91.17" x2="179.97" y2= "91.17" />
  <rect class="fil0 str0" x="60.95" y="130.84" width="19.84" height="19.84"/>
  <rect class="fil0" width="200" height="200"/>
  <path class="fil1" d="M72.76 79c33.09,0 59.9,26.81 59.9,59.89 0,33.09 -26.81,59.9 -59.9,59.9 -33.08,0 -59.89,-26.81 -59.89,-59.9 0,-33.08 26.81,-59.89 59.89,-59.89z"/>
  <g id="_2548556617536">
   <path class="fil0 str1" d="M39.82 140.54l0 -11.81c0.01,-6.52 5.29,-11.81 11.81,-11.81l51.16 0m-11.81 -11.81l11.81 11.81 -11.81 11.81"/>
   <path class="fil0 str1" d="M102.79 140.54l0 11.8c0,6.52 -5.29,11.81 -11.81,11.81l-51.16 0m11.8 11.81l-11.8 -11.81 11.8 -11.81"/>
  </g>
 </g>
</svg>
